<svg width="57" height="56" viewBox="0 0 57 56" fill="none" xmlns="http://www.w3.org/2000/svg">
<rect x="0.130859" width="56.3672" height="56" rx="15" fill="#4DA6F0"/>
<g clip-path="url(#clip0_4465_18796)">
<path d="M30.3586 32.907C30.2464 32.7849 30.1043 32.6935 29.9576 32.6174C29.638 32.4518 29.2884 32.3514 28.9414 32.2607V34.9324C29.5047 34.8692 30.1514 34.6661 30.4471 34.1436C30.5883 33.8941 30.6164 33.5874 30.5589 33.3096C30.5277 33.1591 30.4633 33.0209 30.3586 32.907Z" fill="url(#paint0_linear_4465_18796)"/>
<path d="M30.4434 34.1491C30.4446 34.147 30.4452 34.1457 30.4465 34.1436C30.4455 34.1454 30.4444 34.1472 30.4434 34.1491Z" fill="url(#paint1_linear_4465_18796)"/>
<path d="M26.2988 28.6361C26.202 28.7766 26.1412 28.9362 26.1245 29.1058C26.1077 29.2758 26.1171 29.4649 26.1821 29.6249C26.244 29.7774 26.3737 29.89 26.5075 29.9807C26.6577 30.0822 26.8229 30.1614 26.9911 30.2286C27.1322 30.2851 27.291 30.339 27.4621 30.3912V27.9736C27.0298 28.0653 26.5575 28.2609 26.2988 28.6361Z" fill="url(#paint2_linear_4465_18796)"/>
<path d="M30.4583 34.123C30.4548 34.1293 30.451 34.1358 30.4473 34.1427C30.4516 34.1347 30.4551 34.1288 30.4583 34.123Z" fill="url(#paint3_linear_4465_18796)"/>
<path d="M30.4727 34.0986C30.4736 34.0968 30.4738 34.0966 30.4727 34.0986V34.0986Z" fill="url(#paint4_linear_4465_18796)"/>
<path d="M29.8884 19.5654C32.1753 17.6568 33.7034 13.357 32.763 13.1689C31.5135 12.9189 28.8001 14.0151 27.4886 14.2082C25.6284 14.4313 23.6025 12.2042 22.4653 13.4456C21.5406 14.4549 23.1282 18.1255 25.6119 19.7247C18.2019 23.3428 7.78658 41.5064 25.9566 42.8243C51.0979 44.648 38.5087 23.0912 29.8884 19.5654ZM32.0475 33.8901C31.9702 34.5982 31.5925 35.2385 31.0278 35.6733C30.4316 36.1323 29.6839 36.3458 28.9409 36.4057V37.1881C28.9409 37.3974 28.8489 37.5999 28.6911 37.7385C28.4743 37.9291 28.1557 37.9761 27.8926 37.8556C27.6327 37.7369 27.462 37.4721 27.462 37.1881V36.3329C27.3346 36.3089 27.2082 36.2803 27.0832 36.2462C26.3888 36.0567 25.7447 35.6872 25.2742 35.1406C25.0399 34.8681 24.8488 34.559 24.7167 34.2252C24.6821 34.138 24.6514 34.0492 24.6244 33.9594C24.6 33.878 24.5748 33.7954 24.5661 33.7106C24.5515 33.5685 24.5799 33.4234 24.6466 33.2968C24.7837 33.0363 25.0726 32.8789 25.3675 32.905C25.6578 32.9306 25.9123 33.1308 26.0037 33.4057C26.0318 33.4904 26.0509 33.5772 26.0826 33.661C26.1139 33.7442 26.1517 33.8251 26.1962 33.9021C26.2841 34.0537 26.3942 34.1936 26.5209 34.315C26.7822 34.5651 27.1151 34.7276 27.462 34.8243V31.9175C26.7836 31.743 26.0833 31.5176 25.523 31.0848C25.2507 30.8744 25.0197 30.613 24.8684 30.3036C24.7087 29.977 24.6426 29.6132 24.6399 29.2518C24.6372 28.8849 24.7073 28.5212 24.8614 28.1869C25.0057 27.8739 25.2135 27.5928 25.4682 27.3598C26.0129 26.8618 26.7364 26.584 27.4621 26.4819V26.418V25.6697C27.4621 25.4604 27.5541 25.2579 27.7119 25.1193C27.9288 24.9288 28.2472 24.8817 28.5105 25.0022C28.7702 25.121 28.941 25.3857 28.941 25.6697V26.418V26.4775C29.0377 26.4896 29.1341 26.5041 29.23 26.5214C29.9426 26.6495 30.6396 26.9418 31.1607 27.4523C31.4076 27.694 31.6097 27.9821 31.7518 28.2962C31.7915 28.3839 31.8263 28.4735 31.8563 28.565C31.8843 28.6502 31.9125 28.738 31.9259 28.827C31.9472 28.969 31.9254 29.1157 31.8642 29.2457C31.7389 29.5119 31.4578 29.6814 31.162 29.6688C30.8714 29.6562 30.6081 29.4682 30.5041 29.1984C30.4731 29.1181 30.4576 29.0332 30.426 28.9531C30.3941 28.8721 30.3528 28.7948 30.3052 28.7218C30.2126 28.5798 30.0927 28.4581 29.9559 28.3578C29.6595 28.1403 29.3 28.0271 28.9408 27.9637V30.7455C29.3677 30.847 29.7949 30.9578 30.2039 31.118C30.8221 31.3602 31.4079 31.7315 31.7453 32.3171C31.693 32.2259 31.6421 32.137 31.7471 32.3201C31.8502 32.5 31.801 32.4143 31.7492 32.3241C32.0177 32.7941 32.1059 33.3562 32.0475 33.8901Z" fill="url(#paint5_linear_4465_18796)"/>
<path d="M30.4367 34.1621C30.4325 34.1698 30.4287 34.1765 30.4258 34.1816C30.4283 34.1772 30.4321 34.1705 30.4367 34.1621Z" fill="url(#paint6_linear_4465_18796)"/>
</g>
<defs>
<linearGradient id="paint0_linear_4465_18796" x1="29.7642" y1="32.2607" x2="29.7642" y2="34.9324" gradientUnits="userSpaceOnUse">
<stop stop-color="white"/>
<stop offset="1" stop-color="white" stop-opacity="0.9"/>
</linearGradient>
<linearGradient id="paint1_linear_4465_18796" x1="30.4449" y1="34.1436" x2="30.4449" y2="34.1491" gradientUnits="userSpaceOnUse">
<stop stop-color="white"/>
<stop offset="1" stop-color="white" stop-opacity="0.9"/>
</linearGradient>
<linearGradient id="paint2_linear_4465_18796" x1="26.7896" y1="27.9736" x2="26.7896" y2="30.3912" gradientUnits="userSpaceOnUse">
<stop stop-color="white"/>
<stop offset="1" stop-color="white" stop-opacity="0.9"/>
</linearGradient>
<linearGradient id="paint3_linear_4465_18796" x1="30.4528" y1="34.123" x2="30.4528" y2="34.1427" gradientUnits="userSpaceOnUse">
<stop stop-color="white"/>
<stop offset="1" stop-color="white" stop-opacity="0.9"/>
</linearGradient>
<linearGradient id="paint4_linear_4465_18796" x1="30.4731" y1="34.0972" x2="30.4731" y2="34.0986" gradientUnits="userSpaceOnUse">
<stop stop-color="white"/>
<stop offset="1" stop-color="white" stop-opacity="0.9"/>
</linearGradient>
<linearGradient id="paint5_linear_4465_18796" x1="28.3135" y1="13.0669" x2="28.3135" y2="42.9336" gradientUnits="userSpaceOnUse">
<stop stop-color="white"/>
<stop offset="1" stop-color="white" stop-opacity="0.9"/>
</linearGradient>
<linearGradient id="paint6_linear_4465_18796" x1="30.4313" y1="34.1621" x2="30.4313" y2="34.1816" gradientUnits="userSpaceOnUse">
<stop stop-color="white"/>
<stop offset="1" stop-color="white" stop-opacity="0.9"/>
</linearGradient>
<clipPath id="clip0_4465_18796">
<rect width="30.0625" height="29.8667" fill="white" transform="translate(13.2832 13.0669)"/>
</clipPath>
</defs>
</svg>
