<svg width="24" height="24" viewBox="0 0 24 24" fill="none" xmlns="http://www.w3.org/2000/svg">
<g clip-path="url(#clip0_5512_6088)">
<path fill-rule="evenodd" clip-rule="evenodd" d="M15.9038 12.5934L20.1009 10.7691C20.6668 10.5181 21.0205 9.9453 20.9912 9.32694C20.962 8.70857 20.5558 8.1717 19.9688 7.97531L4.96125 3.075C4.42575 2.89974 3.83721 3.04037 3.43879 3.43879C3.04037 3.83721 2.89974 4.42575 3.075 4.96125L7.97531 19.9688C8.16449 20.562 8.7041 20.9739 9.32625 21H9.39937C9.99491 21.0021 10.5341 20.6482 10.7691 20.1009L12.5934 15.9038L17.25 20.5603C17.5313 20.8417 17.9129 20.9998 18.3108 20.9998C18.7087 20.9998 19.0902 20.8417 19.3716 20.5603L20.5603 19.3716C20.8417 19.0902 20.9998 18.7087 20.9998 18.3108C20.9998 17.9129 20.8417 17.5313 20.5603 17.25L15.9038 12.5934ZM9.39 19.5084L9.39563 19.5037L9.39 19.5084ZM18.3103 19.5L13.6538 14.8434C13.3029 14.4919 12.8007 14.3368 12.3127 14.4294C11.8247 14.5219 11.4141 14.85 11.2163 15.3056L9.39656 19.4925L4.5 4.5L19.4878 9.39375L15.3019 11.2144C14.8463 11.4122 14.5182 11.8228 14.4256 12.3108C14.3331 12.7988 14.4881 13.301 14.8397 13.6519L19.5 18.3103L18.3103 19.5Z" fill="#263238"/>
</g>
<defs>
<clipPath id="clip0_5512_6088">
<rect width="24" height="24" fill="white"/>
</clipPath>
</defs>
</svg>
