<svg width="57" height="56" viewBox="0 0 57 56" fill="none" xmlns="http://www.w3.org/2000/svg">
<rect x="0.130859" width="56.3672" height="56" rx="15" fill="#F87B7B"/>
<g clip-path="url(#clip0_4465_18841)">
<path fill-rule="evenodd" clip-rule="evenodd" d="M16.9914 28H19.5078V39.25C19.5078 39.9412 20.0714 40.5 20.766 40.5H35.8643C36.5601 40.5 37.1225 39.9412 37.1225 39.25V28H39.6389C41.72 28 43.4135 26.3175 43.4135 24.25V19.25C43.4135 17.1825 41.72 15.5 39.6389 15.5H16.9914C14.9103 15.5 13.2168 17.1825 13.2168 19.25V24.25C13.2168 26.3175 14.9103 28 16.9914 28ZM37.1225 23V25.5H39.6389C40.3335 25.5 40.8971 24.9387 40.8971 24.25V19.25C40.8971 18.5612 40.3335 18 39.6389 18H16.9914V18C16.2981 18 15.7332 18.5612 15.7332 19.2499V24.25C15.7332 24.9388 16.2982 25.5 16.9914 25.5H19.5078V23H18.2496C17.555 23 16.9914 22.44 16.9914 21.75C16.9914 21.06 17.555 20.5 18.2496 20.5H20.766H35.8643H38.3807C39.0765 20.5 39.6389 21.06 39.6389 21.75C39.6389 22.44 39.0765 23 38.3808 23H37.1225Z" fill="url(#paint0_linear_4465_18841)"/>
<path d="M28.8177 33.7625V34.3875C28.8114 34.6238 28.6151 34.8125 28.3773 34.8125C28.1345 34.8263 27.9269 34.6425 27.9118 34.4012C27.9118 34.3963 27.9118 34.3925 27.9118 34.3875V33.7625C27.0588 33.7487 26.2422 33.4187 25.6219 32.8374C25.5414 32.7437 25.4961 32.6237 25.4961 32.4999C25.4961 32.1637 25.7629 31.8887 26.1 31.8749C26.2321 31.8762 26.3605 31.9199 26.4649 31.9999C26.8839 32.3274 27.3834 32.5387 27.9118 32.6124V30.4999C26.7795 30.2124 25.5841 29.8124 25.5841 28.3749C25.6521 27.1561 26.6838 26.2137 27.9118 26.2499V25.6C27.9181 25.3588 28.1207 25.1675 28.3635 25.175C28.3685 25.175 28.3723 25.175 28.3774 25.175C28.6152 25.175 28.8115 25.3637 28.8178 25.6V26.2625C29.5236 26.2975 30.1955 26.5763 30.7176 27.05C30.7969 27.14 30.841 27.255 30.8434 27.375C30.8371 27.72 30.549 27.9938 30.2018 27.9875C30.1275 28.0025 30.0495 28.0025 29.9753 27.9875C29.6155 27.7688 29.2254 27.605 28.8177 27.5V29.3625C29.9501 29.6625 31.1957 30.1001 31.1957 31.5626C31.1957 32.6375 30.4534 33.6 28.8177 33.7625ZM27.9118 27.4125C27.3079 27.475 26.9179 27.8125 26.9179 28.3C26.9179 28.7875 27.3331 28.9375 27.9118 29.1V27.4125ZM28.8177 30.7625V32.6125C29.5601 32.5 29.8494 32.075 29.8494 31.6625C29.8494 31.25 29.409 30.925 28.8177 30.75V30.7625Z" fill="#F87B7B"/>
</g>
<defs>
<linearGradient id="paint0_linear_4465_18841" x1="28.3151" y1="20.5" x2="28.3151" y2="23" gradientUnits="userSpaceOnUse">
<stop stop-color="white"/>
<stop offset="1" stop-color="white" stop-opacity="0.84"/>
</linearGradient>
<clipPath id="clip0_4465_18841">
<rect width="30.1967" height="30" fill="white" transform="translate(13.2168 13)"/>
</clipPath>
</defs>
</svg>
