<svg width="24" height="24" viewBox="0 0 24 24" fill="none" xmlns="http://www.w3.org/2000/svg">
<g clip-path="url(#clip0_5512_6124)">
<path fill-rule="evenodd" clip-rule="evenodd" d="M20.25 14.25C20.25 14.6642 19.9142 15 19.5 15H12.75V19.9397L14.4694 18.2194C14.7624 17.9263 15.2376 17.9263 15.5306 18.2194C15.8237 18.5124 15.8237 18.9876 15.5306 19.2806L12.5306 22.2806C12.3899 22.4215 12.1991 22.5006 12 22.5006C11.8009 22.5006 11.6101 22.4215 11.4694 22.2806L8.46937 19.2806C8.17632 18.9876 8.17632 18.5124 8.46937 18.2194C8.76243 17.9263 9.23757 17.9263 9.53063 18.2194L11.25 19.9397V15H4.5C4.08579 15 3.75 14.6642 3.75 14.25C3.75 13.8358 4.08579 13.5 4.5 13.5H19.5C19.9142 13.5 20.25 13.8358 20.25 14.25ZM4.5 10.5H19.5C19.9142 10.5 20.25 10.1642 20.25 9.75C20.25 9.33579 19.9142 9 19.5 9H12.75V4.06031L14.4694 5.78062C14.6589 5.9702 14.9353 6.04424 15.1942 5.97485C15.4532 5.90546 15.6555 5.70319 15.7248 5.44422C15.7942 5.18526 15.7202 4.90895 15.5306 4.71938L12.5306 1.71938C12.3899 1.57854 12.1991 1.49941 12 1.49941C11.8009 1.49941 11.6101 1.57854 11.4694 1.71938L8.46937 4.71938C8.2798 4.90895 8.20576 5.18526 8.27515 5.44422C8.34454 5.70319 8.54681 5.90546 8.80578 5.97485C9.06474 6.04424 9.34105 5.9702 9.53063 5.78062L11.25 4.06031V9H4.5C4.08579 9 3.75 9.33579 3.75 9.75C3.75 10.1642 4.08579 10.5 4.5 10.5Z" fill="#263238"/>
</g>
<defs>
<clipPath id="clip0_5512_6124">
<rect width="24" height="24" fill="white"/>
</clipPath>
</defs>
</svg>
