<svg width="57" height="56" viewBox="0 0 57 56" fill="none" xmlns="http://www.w3.org/2000/svg">
<rect x="0.130859" width="56.3672" height="56" rx="15" fill="#4DB697"/>
<g clip-path="url(#clip0_4465_18825)">
<path d="M23.335 17.6664H33.3759L35.5429 15.9441C36.2806 15.3592 36.5562 14.4097 36.2443 13.5237C35.9324 12.6376 35.122 12.0664 34.18 12.0664H22.5308C21.5888 12.0664 20.7784 12.6389 20.4665 13.5237C20.1546 14.4085 20.4302 15.3592 21.1667 15.9429L23.335 17.6664Z" fill="url(#paint0_linear_4465_18825)"/>
<path d="M38.3763 27.2239L37.5496 28.0452C37.0235 28.5803 36.3095 28.8665 35.558 28.8665C34.8064 28.8665 34.0924 28.5803 33.5663 28.0452C32.464 26.9501 32.464 25.183 33.5663 24.0879L35.6331 22.0345C34.9943 21.1012 34.2928 20.255 33.5413 19.5332H23.1697C19.7376 22.8683 17.082 28.7296 17.082 33.5332C17.082 37.7145 19.3117 41.9332 24.2845 41.9332H32.7396C36.9859 41.9332 39.6289 38.7101 39.6289 33.5332C39.6289 31.5296 39.1655 29.3394 38.3763 27.2239ZM27.8795 29.7999H28.8315C30.297 29.7999 31.487 30.9821 31.487 32.4381C31.487 33.7448 30.535 34.8274 29.2949 35.039V36.0221C29.2949 36.5323 28.869 36.9554 28.3555 36.9554C27.8419 36.9554 27.416 36.5323 27.416 36.0221V35.0888H26.1634C25.6498 35.0888 25.224 34.6656 25.224 34.1554C25.224 33.6452 25.6498 33.2221 26.1634 33.2221H28.8315C29.2573 33.2221 29.6081 32.8736 29.6081 32.4505C29.6081 32.015 29.2573 31.6665 28.8315 31.6665H27.8795C26.4139 31.6665 25.224 30.4843 25.224 29.0283C25.224 27.7216 26.1759 26.639 27.416 26.4274V25.4443C27.416 24.9341 27.8419 24.511 28.3555 24.511C28.869 24.511 29.2949 24.9341 29.2949 25.4443V26.3776H30.5475C31.0611 26.3776 31.487 26.8008 31.487 27.311C31.487 27.8212 31.0611 28.2443 30.5475 28.2443H27.8795C27.4536 28.2443 27.1029 28.5928 27.1029 29.0159C27.1029 29.4514 27.4536 29.7999 27.8795 29.7999Z" fill="url(#paint1_linear_4465_18825)"/>
<path d="M44.9528 19.5332H41.8213C41.4418 19.5332 41.0985 19.7609 40.9532 20.1094C40.8079 20.4578 40.8881 20.8598 41.1574 21.1261L41.9691 21.9325L40.7503 23.05L39.1558 22.144C38.7875 21.935 38.3253 21.9972 38.0259 22.2959L34.8944 25.407C34.5274 25.7716 34.5274 26.3627 34.8944 26.7273C35.0773 26.909 35.3178 27.0011 35.5583 27.0011C35.7988 27.0011 36.0393 26.9103 36.2222 26.7273L38.8464 24.1202L40.4146 25.0112C40.7716 25.2141 41.2175 25.1631 41.5182 24.8868L43.2981 23.2553L44.2877 24.2384C44.468 24.4164 44.7085 24.511 44.9528 24.511C45.0743 24.511 45.1958 24.4873 45.3123 24.44C45.663 24.2957 45.8923 23.9547 45.8923 23.5776V20.4665C45.8923 19.9513 45.4714 19.5332 44.9528 19.5332Z" fill="url(#paint2_linear_4465_18825)"/>
</g>
<defs>
<linearGradient id="paint0_linear_4465_18825" x1="28.3554" y1="12.0664" x2="28.3554" y2="17.6664" gradientUnits="userSpaceOnUse">
<stop stop-color="white"/>
<stop offset="1" stop-color="white" stop-opacity="0.9"/>
</linearGradient>
<linearGradient id="paint1_linear_4465_18825" x1="28.3555" y1="19.5332" x2="28.3555" y2="41.9332" gradientUnits="userSpaceOnUse">
<stop stop-color="white"/>
<stop offset="1" stop-color="white" stop-opacity="0.9"/>
</linearGradient>
<linearGradient id="paint2_linear_4465_18825" x1="40.2557" y1="19.5332" x2="40.2557" y2="27.0011" gradientUnits="userSpaceOnUse">
<stop stop-color="white"/>
<stop offset="1" stop-color="white" stop-opacity="0.9"/>
</linearGradient>
<clipPath id="clip0_4465_18825">
<rect width="30.0625" height="29.8667" fill="white" transform="translate(17.082 12.0664)"/>
</clipPath>
</defs>
</svg>
