<svg width="24" height="24" viewBox="0 0 24 24" fill="none" xmlns="http://www.w3.org/2000/svg">
<g clip-path="url(#clip0_5512_6146)">
<path fill-rule="evenodd" clip-rule="evenodd" d="M13.125 16.875C13.125 17.4963 12.6213 18 12 18C11.3787 18 10.875 17.4963 10.875 16.875C10.875 16.2537 11.3787 15.75 12 15.75C12.6213 15.75 13.125 16.2537 13.125 16.875ZM12 6.75C9.93188 6.75 8.25 8.26406 8.25 10.125V10.5C8.25 10.9142 8.58579 11.25 9 11.25C9.41421 11.25 9.75 10.9142 9.75 10.5V10.125C9.75 9.09375 10.7597 8.25 12 8.25C13.2403 8.25 14.25 9.09375 14.25 10.125C14.25 11.1562 13.2403 12 12 12C11.5858 12 11.25 12.3358 11.25 12.75V13.5C11.25 13.9142 11.5858 14.25 12 14.25C12.4142 14.25 12.75 13.9142 12.75 13.5V13.4325C14.46 13.1184 15.75 11.7544 15.75 10.125C15.75 8.26406 14.0681 6.75 12 6.75ZM21.75 12C21.75 17.3848 17.3848 21.75 12 21.75C6.61522 21.75 2.25 17.3848 2.25 12C2.25 6.61522 6.61522 2.25 12 2.25C17.3824 2.25568 21.7443 6.61758 21.75 12ZM20.25 12C20.25 7.44365 16.5563 3.75 12 3.75C7.44365 3.75 3.75 7.44365 3.75 12C3.75 16.5563 7.44365 20.25 12 20.25C16.5542 20.2448 20.2448 16.5542 20.25 12Z" fill="#263238"/>
</g>
<defs>
<clipPath id="clip0_5512_6146">
<rect width="24" height="24" fill="white"/>
</clipPath>
</defs>
</svg>
