<svg width="24" height="24" viewBox="0 0 24 24" fill="none" xmlns="http://www.w3.org/2000/svg">
<g clip-path="url(#clip0_5512_6154)">
<path fill-rule="evenodd" clip-rule="evenodd" d="M19.5 2.25H6.75C5.09315 2.25 3.75 3.59315 3.75 5.25V21C3.75 21.4142 4.08579 21.75 4.5 21.75H18C18.4142 21.75 18.75 21.4142 18.75 21C18.75 20.5858 18.4142 20.25 18 20.25H5.25C5.25 19.4216 5.92157 18.75 6.75 18.75H19.5C19.9142 18.75 20.25 18.4142 20.25 18V3C20.25 2.58579 19.9142 2.25 19.5 2.25ZM18.75 17.25H6.75C6.22326 17.2493 5.70572 17.388 5.25 17.6522V5.25C5.25 4.42157 5.92157 3.75 6.75 3.75H18.75V17.25Z" fill="#263238"/>
</g>
<defs>
<clipPath id="clip0_5512_6154">
<rect width="24" height="24" fill="white"/>
</clipPath>
</defs>
</svg>
